<svg
   width="35.785477mm"
   height="48.10397mm"
   viewBox="0 0 35.785477 48.10397"
   version="1.1"
   id="svg1"
   xml:space="preserve"
   xmlns:inkscape="http://www.inkscape.org/namespaces/inkscape"
   xmlns:sodipodi="http://sodipodi.sourceforge.net/DTD/sodipodi-0.dtd"
   xmlns="http://www.w3.org/2000/svg"
   xmlns:svg="http://www.w3.org/2000/svg"><sodipodi:namedview
     id="namedview1"
     pagecolor="#ffffff"
     bordercolor="#000000"
     borderopacity="0.25"
     inkscape:showpageshadow="2"
     inkscape:pageopacity="0.0"
     inkscape:pagecheckerboard="0"
     inkscape:deskcolor="#d1d1d1"
     inkscape:document-units="mm" /><defs
     id="defs1" /><g
     inkscape:label="Capa 1"
     inkscape:groupmode="layer"
     id="layer1"
     transform="translate(-86.921091,-124.73777)"><path
       style="fill:#cccccc;fill-opacity:1"
       d="m 100.73935,172.42761 c 0.56792,-0.37211 0.71095,-0.37326 1.41084,-0.0113 0.91833,0.47489 1.45712,0.20002 1.88884,-0.96363 0.36871,-0.99379 1.02597,-0.91387 1.48316,0.18035 0.51961,1.24359 0.83667,1.36729 1.75821,0.68596 0.79135,-0.58507 0.79135,-0.58507 1.38096,-0.0312 0.95917,0.90109 2.53988,0.4879 2.53988,-0.66391 0,-0.81984 0.85862,-0.73358 1.5875,0.15949 1.23477,1.5129 1.67005,1.00323 1.4112,-1.65236 -0.47621,-4.88527 -0.49287,-4.84246 1.84351,-4.73497 4.40228,0.20252 7.67777,-6.78878 5.44752,-11.62736 -0.82277,-1.78502 -0.82277,-1.78502 0.16855,-5.57735 3.88362,-14.85706 -3.23923,-24.12354 -17.9989,-23.41568 -13.170155,0.63162 -19.289276,9.43758 -15.750289,22.66605 1.209338,4.52042 1.207598,4.49827 0.469261,5.97419 -2.365862,4.72933 0.888385,12.29159 5.136158,11.93547 2.402525,-0.20142 2.892425,1.54546 1.659302,5.91672 -0.355488,1.26016 1.108563,1.56041 1.751437,0.35919 0.403252,-0.75349 1.04037,-0.74188 1.435892,0.0262 0.520762,1.01124 0.702853,1.18828 1.22212,1.18828 0.287574,0 0.807259,-0.18634 1.154849,-0.41409 z m 1.90703,-7.69979 c -0.52986,-0.52986 0.50498,-3.45972 1.51933,-4.30155 0.62389,-0.51778 1.68811,-0.1232 2.28448,0.84701 1.45015,2.35917 1.16201,4.11451 -0.53163,3.23869 -0.78006,-0.40338 -0.93674,-0.40535 -1.89033,-0.0238 -1.19759,0.47918 -1.15048,0.47101 -1.38185,0.23965 z m -9.132734,-4.75406 c -2.907388,-1.48604 -2.836691,-5.65289 0.09591,-5.65289 1.941879,0 7.213184,1.58432 7.938714,2.38603 1.60313,1.77143 -5.394101,4.61649 -8.034623,3.26686 z m 18.678704,0.14528 c -4.26459,-1.00509 -5.49851,-3.05746 -2.55086,-4.24282 6.84571,-2.75292 10.77276,-1.40095 8.01876,2.76063 -1.06347,1.60701 -2.86557,2.09551 -5.4679,1.48219 z"
       id="path2"
       sodipodi:nodetypes="ssssscsssssssssssssssssssssssssssssss"
       inkscape:export-filename="point_off.png"
       inkscape:export-xdpi="96"
       inkscape:export-ydpi="96" /></g></svg>